<svg width="20" height="20" viewBox="0 0 20 20" fill="none" xmlns="http://www.w3.org/2000/svg">
<path d="M7.49998 18.75H5.62498V17.5H7.49998V9.72873L5.3031 8.41061L5.94685 7.33936L8.1431 8.65686C8.32778 8.76837 8.48063 8.92557 8.58692 9.11331C8.69322 9.30105 8.74937 9.51299 8.74998 9.72873V17.5C8.74998 17.8315 8.61828 18.1494 8.38386 18.3839C8.14944 18.6183 7.8315 18.75 7.49998 18.75Z" fill="#1EA575"/>
<path d="M13.75 18.75H11.875C11.5435 18.75 11.2255 18.6183 10.9911 18.3839C10.7567 18.1495 10.625 17.8315 10.625 17.5V10.625H14.375C14.7242 10.6251 15.0696 10.552 15.3888 10.4104C15.708 10.2688 15.9941 10.062 16.2285 9.80313C16.4629 9.54429 16.6405 9.2392 16.7498 8.90754C16.8591 8.57588 16.8977 8.225 16.8631 7.8775C16.7793 7.24532 16.4656 6.66615 15.9819 6.25064C15.4981 5.83513 14.8782 5.6124 14.2406 5.625H13.2512L13.1406 5.13812C12.7825 3.56 11.2694 2.5 9.375 2.5C8.65969 2.50234 7.95988 2.70854 7.35758 3.09443C6.75528 3.48031 6.27547 4.0299 5.97437 4.67875L5.78125 5.09562L5.24188 5.02437C5.16186 5.01103 5.08107 5.00288 5 5C4.33696 5 3.70107 5.26339 3.23223 5.73223C2.76339 6.20107 2.5 6.83696 2.5 7.5C2.5 8.16304 2.76339 8.79893 3.23223 9.26777C3.70107 9.73661 4.33696 10 5 10V11.25C4.00544 11.25 3.05161 10.8549 2.34835 10.1517C1.64509 9.44839 1.25 8.49456 1.25 7.5C1.25 6.50544 1.64509 5.55161 2.34835 4.84835C3.05161 4.14509 4.00544 3.75 5 3.75L5.04938 3.75062C5.4892 2.99234 6.11997 2.36249 6.87889 1.92376C7.6378 1.48504 8.4984 1.25274 9.375 1.25C11.6744 1.25 13.5575 2.48625 14.22 4.375H14.2406C15.1886 4.36443 16.1072 4.70375 16.8206 5.32805C17.534 5.95234 17.9922 6.81777 18.1075 7.75875C18.1586 8.27963 18.1001 8.80543 17.9358 9.30235C17.7715 9.79926 17.505 10.2563 17.1534 10.644C16.8018 11.0317 16.373 11.3415 15.8945 11.5536C15.416 11.7656 14.8984 11.8751 14.375 11.875H11.875V17.5H13.75V18.75Z" fill="#1EA575"/>
</svg>
